<?xml version="1.0" encoding="utf-8"?>
<!-- Generator: Adobe Illustrator 24.0.1, SVG Export Plug-In . SVG Version: 6.00 Build 0)  -->
<svg version="1.1" id="Layer_1" xmlns="http://www.w3.org/2000/svg" xmlns:xlink="http://www.w3.org/1999/xlink" x="0px" y="0px"
	 viewBox="0 0 900 900" style="enable-background:new 0 0 900 900;display:none;" xml:space="preserve">
<style type="text/css">
	.st0{fill:#CCDEF2;}
	.st1{fill:#EAA61F;}
	.st2{fill:#D88971;}
	.st3{fill:#FCC490;}
	.st4{fill:#B23F3F;}
	.st5{fill:#8C3535;}
	.st6{fill:#E5594E;}
	.st7{fill:#15497C;}
	.st8{fill:#1A5AA4;}
	.st9{fill:#13446B;}
	.st10{fill:#FFA85A;}
	.st11{fill:#A86951;}
	.st12{fill:#C2D8EF;}
	.st13{fill:#8A8AA8;}
	.st14{fill:#B0B0C6;}
	.st15{fill:#BF7666;}
	.st16{fill:#75D9F1;}
	.st17{fill:#279CD1;}
	.st18{fill:#A86256;}
	.st19{fill:#CCCBDB;}
	.st20{opacity:0.6;fill:#8C8CA5;}
	.st21{fill:#EEEFE6;}
	.st22{fill:#E5BF23;}
	.st23{fill:#FBF65A;}
	.st24{fill:#B87A53;}
	.st25{fill:#704136;}
	.st26{fill:#272523;}
	.st27{fill:#FED500;}
	.st28{fill:#FFFFFF;}
	.st29{fill:#5B5652;}
	.st30{fill:#1E2123;}
	.st31{fill:#505862;}
	.st32{fill:#737B84;}
	.st33{fill:#899122;}
	.st34{fill:#332E2B;}
	.st35{fill:#FF5245;}
	.st36{fill:#C7D821;}
	.st37{fill:#CE8D1B;}
	.st38{fill:#564D47;}
	.st39{fill:#F9DEC1;}
	.st40{fill:#C1AA8A;}
	.st41{opacity:0.2;fill:#C1AA8A;}
	.st42{opacity:0.8;fill:#93878D;}
	.st43{fill:#D88850;}
	.st44{opacity:0.8;fill:#CEC0B3;}
	.st45{fill:#BA5C2D;}
	.st46{fill:#FFB95C;}
	.st47{opacity:0.4;fill:#F9DEC1;}
	.st48{fill:#D3BCA1;}
	.st49{opacity:0.8;fill:#7F7077;}
	.st50{opacity:0.3;fill:#505862;}
	.st51{fill:#100F0B;}
	.st52{fill:#D85825;}
	.st53{fill:#FF7415;}
	.st54{opacity:0.6;fill:#FF9852;}
	.st55{fill:#3F3A36;}
	.st56{fill:#5ABCFF;}
	.st57{fill:#AA9F93;}
	.st58{fill:#F2CDAF;}
	.st59{fill:#CEC0B3;}
	.st60{fill:#565050;}
	.st61{opacity:0.6;}
	.st62{fill:#F4D7C1;}
	.st63{opacity:0.8;}
	.st64{fill:#BF2E36;}
	.st65{fill:#525B6D;}
	.st66{fill:#6A7389;}
	.st67{fill:#9BA3BA;}
	.st68{fill:#AEB7CE;}
	.st69{fill:#4189E0;}
	.st70{opacity:0.5;fill:#FCC490;}
	.st71{opacity:0.7;fill:#767687;}
	.st72{opacity:0.5;fill:#F9DEC1;}
	.st73{opacity:0.8;fill:#F9DEC1;}
	.st74{opacity:0.4;fill:#505862;}
	.st75{opacity:0.5;fill:none;stroke:#998265;stroke-width:2.7498;stroke-miterlimit:10;}
	.st76{fill:#BC7762;}
	.st77{fill:#D38A79;}
	.st78{fill:#403023;}
	.st79{fill:#4F3A2A;}
	.st80{fill:#683E3A;}
	.st81{fill:#16569B;}
	.st82{fill:#7C4A45;}
	.st83{fill:#177FBF;}
	.st84{fill:none;stroke:#F28F7C;stroke-width:17.9125;stroke-linecap:round;stroke-linejoin:round;stroke-miterlimit:10;}
	.st85{fill:#FFE536;}
	.st86{opacity:0.6;fill:#C67560;}
	.st87{fill:#8E3925;}
	.st88{fill:#FFB287;}
	.st89{fill:#E5785C;}
	.st90{fill:#422B27;}
	.st91{fill:none;stroke:#8E3925;stroke-width:3.3206;stroke-linecap:round;stroke-miterlimit:10;}
	.st92{fill:none;stroke:#E5785C;stroke-width:3.6251;stroke-linecap:round;stroke-miterlimit:10;}
	.st93{fill:#602C34;}
	.st94{fill:none;stroke:#FFB287;stroke-width:17.9125;stroke-linecap:round;stroke-linejoin:round;stroke-miterlimit:10;}
	.st95{opacity:0.6;fill:#E5785C;}
	.st96{fill:#9FB9D1;}
	.st97{fill:#D64556;}
	.st98{fill:#7A1B38;}
	.st99{fill:#962643;}
	.st100{fill:none;stroke:#FFA68A;stroke-width:5.11;stroke-linecap:round;stroke-linejoin:round;stroke-miterlimit:10;}
	.st101{fill:#FFA68A;}
	.st102{fill:#DEF1FF;}
	.st103{opacity:0.5;}
	.st104{fill:#27A3E0;}
	.st105{fill:#632C42;}
	.st106{fill:#FFDC2B;}
	.st107{opacity:0.6;fill:#FFFFFF;}
	.st108{fill:#F7C52C;}
	.st109{opacity:0.5;fill:#FFFFFF;}
	.st110{fill:#DB9314;}
	.st111{fill:#473F3C;}
	.st112{opacity:0.5;fill:#75D9F1;}
</style>
<g style="display:inline;">
	<path class="st0" d="M763.7,825.4c0-3.4-3.4-6.1-7.7-6.1h-645c-4.2,0-7.7,2.8-7.7,6.1s3.4,6.1,7.7,6.1h645
		C760.2,831.6,763.7,828.8,763.7,825.4z"/>
</g>
<path style="display:inline;fill:#EAA61F;" d="M214,326.9c-5.2,6.8-8.2,13.2-7.1,17.2c1.4,5.2,9,3.8,39.9,2.1
	c30.9-1.7,44.2-11.3,37.8-27.4C280.8,309.2,214,326.9,214,326.9z"/>
<g style="display:inline;">
	<rect x="590.2" y="94.2" class="st2" width="70.4" height="101.1"/>
	<rect x="507.5" y="94.2" class="st3" width="84" height="101.1"/>
	<g>
		<rect x="511.2" y="118.7" class="st4" width="84.7" height="90.3"/>
		<rect x="495.8" y="118.7" class="st5" width="84.7" height="90.3"/>
		<rect x="595.3" y="118.7" class="st6" width="80.3" height="90.3"/>
	</g>
	<g>
		<rect x="477.2" y="101" class="st7" width="13.5" height="593.2"/>
	</g>
	<g>
		<rect x="490.3" y="101" class="st8" width="13.5" height="593.2"/>
		<polygon class="st9" points="477.2,215.1 490.3,215.1 490.7,215.1 503.8,215.1 503.8,694.2 490.7,694.2 490.3,694.2 477.2,694.2 
					"/>
	</g>
	<g>
		<rect x="427.3" y="238.2" class="st10" width="84.7" height="90.3"/>
		<rect x="511.5" y="238.2" class="st11" width="45.2" height="90.3"/>
	</g>
	<g>
		<rect x="562" y="230.9" class="st12" width="52.3" height="99"/>
		<polygon class="st13" points="606.8,342.6 554.6,342.6 574.4,272.4 574.4,231.1 582.9,231.1 582.9,243.9 587.9,243.6 606.8,259.4 
					"/>
		<rect x="606.7" y="230.9" class="st14" width="73.3" height="99"/>
	</g>
	<g>
		<g>
			<polygon class="st15" points="447.3,267.7 412.2,330.8 347.7,330.8 347.7,293.1 407,267.7 			"/>
			<rect x="352.8" y="264.2" class="st16" width="9.9" height="56.7"/>
			<rect x="361.6" y="264.2" class="st17" width="48.8" height="56.7"/>
			<rect x="364.8" y="264.2" class="st16" width="9.9" height="56.7"/>
			<rect x="416.8" y="267.7" class="st18" width="40" height="37.7"/>
			<rect x="373.6" y="264.2" class="st17" width="48.8" height="56.7"/>
			<rect x="378.2" y="264.2" class="st16" width="9.9" height="56.7"/>
			<rect x="387" y="264.2" class="st17" width="48.8" height="56.7"/>
			<polygon class="st2" points="460.4,330.8 387.2,330.8 387.2,293.1 444.4,268 495.5,268 			"/>
		</g>
		<rect x="347.4" y="293.1" class="st3" width="40" height="37.7"/>
	</g>
	<g>
		<g>
			<polygon class="st18" points="504.7,267.7 469.6,330.8 405.1,330.8 405.1,293.1 464.4,267.7 			"/>
			<rect x="477.6" y="267.7" class="st3" width="40" height="37.7"/>
			<polygon class="st19" points="465.2,293.6 488.8,293.6 481.2,256.7 457.6,256.7 			"/>
			<polygon class="st20" points="486,293.2 468.2,295.5 460.4,256.8 478.2,256.8 			"/>
			
				<rect x="449.8" y="257.5" transform="matrix(0.9797 -0.2005 0.2005 0.9797 -46.1494 96.9692)" class="st21" width="11.7" height="37.7"/>
			<polygon class="st19" points="482.4,293.6 506,293.6 498.5,256.7 474.9,256.7 			"/>
			
				<rect x="467.1" y="257.5" transform="matrix(0.9797 -0.2005 0.2005 0.9797 -45.7994 100.425)" class="st21" width="11.7" height="37.7"/>
			<rect x="441.4" y="283.2" class="st22" width="40" height="37.7"/>
			<rect x="410.4" y="283.2" class="st23" width="40" height="37.7"/>
			<polygon class="st2" points="517.8,330.8 444.6,330.8 444.6,293.1 501.8,268 517.8,268 			"/>
		</g>
		<rect x="404.8" y="293.1" class="st3" width="40" height="37.7"/>
	</g>
	<rect x="604.2" y="351.8" class="st24" width="70.4" height="101.1"/>
	<rect x="576.6" y="351.8" class="st25" width="28.9" height="101.1"/>
	<g>
		<polygon class="st26" points="608.6,462.7 535.3,462.7 535.3,411.4 573.3,363.7 608.6,363.7 		"/>
	</g>
	<g>
		<g>
			<g>
				<rect x="347.2" y="352.8" class="st27" width="25.6" height="98.5"/>
				<rect x="372.8" y="352.8" class="st1" width="66.6" height="98.5"/>
				<rect x="355.6" y="374.5" class="st28" width="7.7" height="43.9"/>
				<rect x="347.2" y="433.2" class="st29" width="25.6" height="13.5"/>
				<rect x="372.8" y="433.2" class="st30" width="59.7" height="13.5"/>
			</g>
			<rect x="378.8" y="352.8" class="st27" width="25.6" height="98.5"/>
			<rect x="404.4" y="352.8" class="st1" width="66.6" height="98.5"/>
			<rect x="387.2" y="374.5" class="st28" width="7.7" height="43.9"/>
			<rect x="378.8" y="433.2" class="st29" width="25.6" height="13.5"/>
		</g>
		<rect x="404.4" y="433.2" class="st30" width="66.6" height="13.5"/>
	</g>
	<g>
		<polygon class="st31" points="501.2,363.7 501.2,462.7 427.9,462.7 427.9,411.4 465.9,363.7 		"/>
		<polygon class="st32" points="501.2,363.7 501.2,411.4 427.9,411.4 465.9,363.7 		"/>
	</g>
	<g>
		<polygon class="st26" points="507.8,462.7 434.5,462.7 434.5,411.4 472.5,363.7 507.8,363.7 		"/>
		<rect x="446" y="369.4" class="st33" width="70.4" height="83.6"/>
		<rect x="463.1" y="369.4" class="st33" width="70.4" height="83.6"/>
	</g>
	<g>
		<polygon class="st31" points="543.6,363.7 543.6,462.7 470.3,462.7 470.3,411.4 508.3,363.7 		"/>
		<polygon class="st32" points="543.6,363.7 543.6,411.4 470.3,411.4 508.3,363.7 		"/>
		<polygon class="st34" points="512.5,367.5 484.9,404.7 472.8,408 505,367.5 		"/>
	</g>
	<g>
		<polygon class="st26" points="551,462.7 477.7,462.7 477.7,411.4 515.7,363.7 551,363.7 		"/>
		<rect x="491.8" y="351.8" class="st4" width="70.4" height="101.1"/>
		<rect x="482" y="351.8" class="st35" width="11.4" height="101.1"/>
		<rect x="508.7" y="351.8" class="st4" width="70.4" height="101.1"/>
		<rect x="498.6" y="351.8" class="st35" width="11.4" height="101.1"/>
		<rect x="437.7" y="369.4" class="st36" width="11.4" height="83.6"/>
		<rect x="454.4" y="369.4" class="st36" width="11.4" height="83.6"/>
	</g>
	<g>
		<polygon class="st31" points="587.7,363.7 587.7,462.7 514.4,462.7 514.4,411.4 552.4,363.7 		"/>
		<polygon class="st32" points="587.7,363.7 587.7,411.4 514.4,411.4 520.1,404.2 552.4,363.7 		"/>
		<polygon class="st34" points="559.8,363.7 532.2,400.9 520.1,404.2 552.4,363.7 		"/>
	</g>
	<g>
		<polygon class="st34" points="595.1,462.7 521.8,462.7 521.8,411.4 559.8,363.7 595.1,363.7 		"/>
	</g>
	<g>
		<g>
			<polygon class="st31" points="538.3,342.7 465,342.7 465,291.4 503,243.6 538.3,243.6 			"/>
		</g>
		<polygon class="st26" points="545.7,342.7 472.5,342.7 472.5,291.4 510.4,243.6 545.7,243.6 		"/>
		<polygon class="st27" points="490.3,331.7 477.5,331.7 472.9,232.6 485.6,232.6 		"/>
		<polygon class="st37" points="554.2,331.7 483.8,331.7 479.2,232.6 549.6,232.6 		"/>
		<rect x="489.5" y="236.2" class="st27" width="12.7" height="99"/>
		<rect x="495.8" y="236.2" class="st37" width="70.4" height="99"/>
		<rect x="499.2" y="230.9" class="st27" width="12.7" height="99"/>
		<rect x="505.5" y="230.9" class="st37" width="70.4" height="99"/>
		<g>
			<polygon class="st31" points="582.4,342.7 509.1,342.7 509.1,291.4 547.1,243.6 582.4,243.6 			"/>
		</g>
		<g>
			<polygon class="st34" points="589.9,342.7 516.6,342.7 516.6,291.4 554.6,243.6 589.9,243.6 			"/>
		</g>
	</g>
	<g>
		<polygon class="st34" points="607.1,462.7 680.4,462.7 680.4,411.4 642.4,363.7 607.1,363.7 		"/>
	</g>
	<g>
		<rect x="353.4" y="526.3" class="st38" width="78.5" height="55.2"/>
		<rect x="424.4" y="526.3" class="st34" width="55.8" height="55.2"/>
	</g>
	<g>
		<rect x="349" y="104.1" class="st34" width="131.1" height="104.9"/>
		<rect x="348.2" y="171.3" class="st38" width="83.8" height="37.7"/>
	</g>
	<g>
		<rect x="424.4" y="130.1" class="st34" width="55.8" height="37.7"/>
		<rect x="348.2" y="130.1" class="st38" width="83.8" height="37.7"/>
	</g>
	<g>
		<rect x="424.4" y="88.9" class="st34" width="55.8" height="37.7"/>
		<rect x="348.2" y="88.9" class="st38" width="83.8" height="37.7"/>
	</g>
	<g>
		<rect x="353.4" y="471" class="st39" width="78.5" height="55.2"/>
		<rect x="424.4" y="471" class="st40" width="55.8" height="55.2"/>
		<rect x="450.5" y="471" class="st24" width="9.1" height="13.4"/>
		<rect x="450.5" y="526.3" class="st41" width="9.1" height="12.3"/>
	</g>
	<g>
		<rect x="350.8" y="601.6" class="st21" width="84.7" height="90.3"/>
		<rect x="434.9" y="601.6" class="st42" width="45.2" height="90.3"/>
	</g>
	<g>
		<polygon class="st11" points="609,597.9 608.3,597.9 543.2,597.9 543.2,694.5 608.3,694.5 609,694.5 682.3,694.5 682.3,597.9 		
			"/>
		<rect x="543.2" y="663.4" class="st11" width="65.8" height="31.1"/>
		<rect x="608.3" y="663.4" class="st43" width="74" height="31.1"/>
		<rect x="543.2" y="629.5" class="st11" width="65.8" height="31.1"/>
		<rect x="608.3" y="629.5" class="st43" width="74" height="31.1"/>
		<rect x="543.2" y="595.8" class="st11" width="65.8" height="31.1"/>
		<rect x="608.3" y="595.8" class="st43" width="74" height="31.1"/>
		<rect x="591.8" y="617.1" class="st44" width="12.7" height="6.7"/>
		<rect x="591.8" y="649.8" class="st44" width="12.7" height="6.7"/>
		<rect x="591.8" y="684.9" class="st44" width="12.7" height="6.7"/>
	</g>
	<g>
		<polygon class="st45" points="511.4,597.9 510.7,597.9 446.5,597.9 446.5,694.5 510.7,694.5 511.4,694.5 584.7,694.5 584.7,597.9 
					"/>
		<rect x="445.6" y="663.4" class="st46" width="65.8" height="31.1"/>
		<rect x="510.7" y="663.4" class="st43" width="74" height="31.1"/>
		<rect x="445.6" y="629.5" class="st46" width="65.8" height="31.1"/>
		<rect x="510.7" y="629.5" class="st43" width="74" height="31.1"/>
		<rect x="445.6" y="595.8" class="st46" width="65.8" height="31.1"/>
		<rect x="510.7" y="595.8" class="st43" width="74" height="31.1"/>
		<rect x="374.2" y="479.8" class="st28" width="28.3" height="19.7"/>
		<rect x="496" y="649.8" class="st28" width="11" height="6.7"/>
		<rect x="496" y="684.9" class="st28" width="11" height="6.7"/>
		<rect x="496" y="617.1" class="st28" width="11" height="6.7"/>
		<rect x="471.9" y="682.6" class="st47" width="14.3" height="14.3"/>
	</g>
	<g>
		<rect x="561.1" y="482.4" class="st48" width="52.3" height="99"/>
		<polygon class="st49" points="607.6,515.7 607.6,579.3 564.6,579.3 564.6,482.4 589.9,482.4 		"/>
		<rect x="605.8" y="482.4" class="st40" width="73.3" height="99"/>
		<g>
			<path class="st31" d="M597.5,497.9c0,1.4-1.2,2.6-2.6,2.6h-11.5c-1.4,0-2.6-1.2-2.6-2.6v0c0-1.4,1.2-2.6,2.6-2.6h11.5
				C596.3,495.3,597.5,496.4,597.5,497.9L597.5,497.9z"/>
		</g>
		<rect x="583.3" y="558.9" class="st50" width="16.8" height="9.1"/>
	</g>
	<g>
		<rect x="466.5" y="482.4" class="st39" width="52.3" height="99"/>
		<rect x="511.2" y="482.4" class="st40" width="73.3" height="99"/>
	</g>
	<g>
		<rect x="448.9" y="110.8" class="st21" width="34.6" height="99"/>
		<rect x="478.5" y="110.8" class="st40" width="48.5" height="99"/>
	</g>
	<g>
		<rect x="490.1" y="110.8" class="st21" width="34.6" height="99"/>
		<rect x="519.7" y="110.8" class="st40" width="54.7" height="99"/>
	</g>
	<g>
		<g>
			<path class="st51" d="M553.9,811.5c0,8.5-6.8,15.3-15.3,15.3c-8.4,0-15.3-6.9-15.3-15.3c0-8.5,6.8-15.3,15.3-15.3
				C547.1,796.2,553.9,803.1,553.9,811.5z"/>
			<path class="st51" d="M656.6,811.5c0,8.5-6.8,15.3-15.3,15.3c-8.4,0-15.3-6.9-15.3-15.3c0-8.5,6.8-15.3,15.3-15.3
				C649.8,796.2,656.6,803.1,656.6,811.5z"/>
			<path class="st51" d="M410.4,811.5c0,8.5-6.8,15.3-15.3,15.3c-8.4,0-15.3-6.9-15.3-15.3c0-8.5,6.8-15.3,15.3-15.3
				C403.6,796.2,410.4,803.1,410.4,811.5z"/>
			<path class="st51" d="M513.1,811.5c0,8.5-6.8,15.3-15.3,15.3c-8.4,0-15.3-6.9-15.3-15.3c0-8.5,6.8-15.3,15.3-15.3
				C506.3,796.2,513.1,803.1,513.1,811.5z"/>
			<g>
				<path class="st26" d="M622.3,759.4c0,1.9-1.6,3.5-3.5,3.5H411.2c-1.9,0-3.5-1.6-3.5-3.5v-33.5c0-1.9,1.6-3.5,3.5-3.5h207.6
					c1.9,0,3.5,1.6,3.5,3.5V759.4z"/>
			</g>
			<g>
				<path class="st38" d="M493.6,764.6c0,1.9-1.6,3.5-3.5,3.5h-58.3c-1.9,0-3.5-1.6-3.5-3.5v-33.5c0-1.9,1.6-3.5,3.5-3.5h58.3
					c1.9,0,3.5,1.6,3.5,3.5V764.6z"/>
			</g>
			<path class="st52" d="M662.5,746.4v65H371.6v-65c0-7.1,5.8-12.9,12.9-12.9h265.1C656.7,733.5,662.5,739.3,662.5,746.4z"/>
			<path class="st53" d="M525.4,733.5c-7.1,0-12.9,5.8-12.9,12.9v65.9H371.6v-65.9c0-1,0.1-2,0.3-2.9c0.5-1.9,1.3-3.7,2.6-5.2
				c2.4-2.9,6-4.7,10-4.7H525.4z"/>
			<g>
				<g>
					<path class="st26" d="M537.8,789.2c0,1-0.8,1.8-1.8,1.8h-1.7c-1,0-1.8-0.8-1.8-1.8v-3.5c0-1,0.8-1.8,1.8-1.8h1.7
						c1,0,1.8,0.8,1.8,1.8V789.2z"/>
				</g>
				<g>
					<path class="st26" d="M551,789.2c0,1-0.8,1.8-1.8,1.8h-1.7c-1,0-1.8-0.8-1.8-1.8v-3.5c0-1,0.8-1.8,1.8-1.8h1.7
						c1,0,1.8,0.8,1.8,1.8V789.2z"/>
				</g>
				<g>
					<path class="st26" d="M564.2,789.2c0,1-0.8,1.8-1.8,1.8h-1.7c-1,0-1.8-0.8-1.8-1.8v-3.5c0-1,0.8-1.8,1.8-1.8h1.7
						c1,0,1.8,0.8,1.8,1.8V789.2z"/>
				</g>
				<g>
					<path class="st26" d="M577.4,789.2c0,1-0.8,1.8-1.8,1.8H574c-1,0-1.8-0.8-1.8-1.8v-3.5c0-1,0.8-1.8,1.8-1.8h1.7
						c1,0,1.8,0.8,1.8,1.8V789.2z"/>
				</g>
				<g>
					<path class="st26" d="M590.6,789.2c0,1-0.8,1.8-1.8,1.8h-1.7c-1,0-1.8-0.8-1.8-1.8v-3.5c0-1,0.8-1.8,1.8-1.8h1.7
						c1,0,1.8,0.8,1.8,1.8V789.2z"/>
				</g>
				<g>
					<path class="st26" d="M603.9,789.2c0,1-0.8,1.8-1.8,1.8h-1.7c-1,0-1.8-0.8-1.8-1.8v-3.5c0-1,0.8-1.8,1.8-1.8h1.7
						c1,0,1.8,0.8,1.8,1.8V789.2z"/>
				</g>
				<g>
					<path class="st26" d="M617.1,789.2c0,1-0.8,1.8-1.8,1.8h-1.7c-1,0-1.8-0.8-1.8-1.8v-3.5c0-1,0.8-1.8,1.8-1.8h1.7
						c1,0,1.8,0.8,1.8,1.8V789.2z"/>
				</g>
				<g>
					<path class="st26" d="M630.3,789.2c0,1-0.8,1.8-1.8,1.8h-1.7c-1,0-1.8-0.8-1.8-1.8v-3.5c0-1,0.8-1.8,1.8-1.8h1.7
						c1,0,1.8,0.8,1.8,1.8V789.2z"/>
				</g>
				<g>
					<path class="st26" d="M643.5,789.2c0,1-0.8,1.8-1.8,1.8h-1.7c-1,0-1.8-0.8-1.8-1.8v-3.5c0-1,0.8-1.8,1.8-1.8h1.7
						c1,0,1.8,0.8,1.8,1.8V789.2z"/>
				</g>
			</g>
		</g>
		<path class="st54" d="M473.4,743.5c1.1-1.9,2.5-3.7,4.2-5.2c3.3-2.9,7.5-4.7,11.5-4.7h-52.6c-4,0-8.2,1.8-11.5,4.7
			c-1.7,1.5-3.2,3.3-4.2,5.2c-0.5,0.9-0.9,1.9-1.3,2.9l-21,65.9h52.6l21-65.9C472.4,745.4,472.8,744.4,473.4,743.5z"/>
	</g>
	<path class="st55" d="M499,753.1v59.3H384.4v-59.3c0-3.4,2.8-6.2,6.2-6.2h102.3C496.2,747,499,749.7,499,753.1z"/>
	<path class="st56" d="M406.1,752.2C406.1,752.2,406.1,752.2,406.1,752.2l-14.7,0c-1,0-1.8,0.8-1.8,1.8v6.8h10.5c0,0,0,0,0,0h11.2
		c1,0,1.8-0.8,1.8-1.8v-6.8H406.1z"/>
	<path class="st56" d="M477,752.2C477,752.2,477,752.2,477,752.2l14.7,0c1,0,1.8,0.8,1.8,1.8v6.8h-10.5c0,0,0,0,0,0h-11.2
		c-1,0-1.8-0.8-1.8-1.8v-6.8H477z"/>
	<rect x="512.5" y="793.9" class="st57" width="150" height="17.4"/>
	<rect x="371.6" y="793.9" class="st58" width="140.9" height="18.3"/>
	<rect x="367.4" y="810.1" class="st38" width="297.9" height="11.7"/>
	<rect x="509.2" y="810.1" class="st26" width="156.1" height="11.7"/>
	<g>
		<path class="st59" d="M606.4,773.6c0,1.9-1.6,3.4-3.4,3.4h-27.6c-1.9,0-3.4-1.6-3.4-3.4v-22.5c0-1.9,1.6-3.4,3.4-3.4H603
			c1.9,0,3.4,1.6,3.4,3.4V773.6z"/>
	</g>
	<g>
		<path class="st60" d="M420.6,786.2c0,1.4-1.2,2.6-2.6,2.6h-25.7c-1.4,0-2.6-1.2-2.6-2.6v-12.4c0-1.4,1.2-2.6,2.6-2.6h25.7
			c1.4,0,2.6,1.2,2.6,2.6V786.2z"/>
	</g>
	<g>
		<path class="st26" d="M452.8,777c0,1.4-1.2,2.6-2.6,2.6h-16.9c-1.4,0-2.6-1.2-2.6-2.6v-12.4c0-1.4,1.2-2.6,2.6-2.6h16.9
			c1.4,0,2.6,1.2,2.6,2.6V777z"/>
	</g>
	<g>
		<path class="st26" d="M482.5,781.1c0,1-0.8,1.8-1.8,1.8h-9.1c-1,0-1.8-0.8-1.8-1.8v-8c0-1,0.8-1.8,1.8-1.8h9.1
			c1,0,1.8,0.8,1.8,1.8V781.1z"/>
	</g>
	<path class="st53" d="M662.5,746.4v8.8c0-7.1-5.8-12.9-12.9-12.9H525.4c-7.1,0-12.9,5.8-12.9,12.9l-4.2-8.8
		c0-7.1,10-12.9,17.1-12.9h124.2C656.7,733.5,662.5,739.3,662.5,746.4z"/>
	<path class="st52" d="M662.5,746.4v8.8c0-7.1-5.8-12.9-12.9-12.9h-76l-10.7-8.8h86.7C656.7,733.5,662.5,739.3,662.5,746.4z"/>
	<g>
		<path class="st38" d="M452.8,777c0,1.4-1.2,2.6-2.6,2.6h-16.9c-1.4,0-1.8-0.9-0.9-2l5.2-5.8c1-1.1,2.9-2,4.4-2h8.2
			c1.4,0,2.6,1.2,2.6,2.6V777z"/>
	</g>
	<g class="st61">
		<path class="st62" d="M398.3,778.6h-0.1c-0.6,0-1-0.2-1-0.7c0-0.4,0.3-0.7,1-0.7h0.7c0.3,0,0.5,0.1,0.6,0.2
			c0.1,0.2,0.2,0.4,0.2,0.8v4.3c0,0.7-0.2,1-0.7,1s-0.7-0.3-0.7-1V778.6z"/>
		<path class="st62" d="M402.2,778c0-0.2,0-0.3,0.1-0.4c0-0.1,0.1-0.2,0.2-0.2c0.1-0.1,0.2-0.1,0.3-0.1c0.1,0,0.2,0,0.4,0h1.7
			c0.6,0,0.9,0.2,0.9,0.7c0,0.2-0.1,0.4-0.2,0.5c-0.1,0.1-0.4,0.2-0.6,0.2h-1.5l-0.1,0.7c0.2-0.1,0.4-0.1,0.6-0.1
			c0.3,0,0.5,0.1,0.7,0.2c0.2,0.1,0.4,0.2,0.6,0.4c0.2,0.2,0.3,0.4,0.4,0.7c0.1,0.3,0.1,0.5,0.1,0.8c0,0.3-0.1,0.6-0.2,0.9
			c-0.1,0.3-0.3,0.5-0.5,0.8c-0.2,0.2-0.5,0.4-0.7,0.5c-0.3,0.1-0.6,0.2-1,0.2c-0.3,0-0.5,0-0.8-0.1c-0.2-0.1-0.5-0.2-0.6-0.3
			c-0.2-0.1-0.3-0.2-0.4-0.4c-0.1-0.1-0.2-0.3-0.2-0.5c0-0.2,0.1-0.3,0.2-0.5c0.1-0.1,0.3-0.2,0.4-0.2c0.1,0,0.2,0,0.3,0.1
			c0.1,0.1,0.2,0.1,0.3,0.2c0.1,0.1,0.2,0.1,0.3,0.2c0.1,0.1,0.3,0.1,0.4,0.1c0.1,0,0.2,0,0.3-0.1c0.1,0,0.2-0.1,0.3-0.2
			c0.1-0.1,0.1-0.2,0.2-0.3c0-0.1,0.1-0.2,0.1-0.4c0-0.3-0.1-0.5-0.2-0.6c-0.1-0.2-0.3-0.2-0.6-0.2c-0.1,0-0.2,0-0.3,0
			c-0.1,0-0.2,0-0.3,0.1c-0.1,0-0.2,0.1-0.3,0.1c-0.1,0-0.2,0-0.2,0c-0.4,0-0.6-0.2-0.6-0.6c0,0,0-0.1,0-0.2c0-0.1,0-0.2,0-0.3
			L402.2,778z"/>
		<path class="st62" d="M410.5,780.1c0.7,0.4,1,0.9,1,1.6c0,0.3-0.1,0.5-0.2,0.8c-0.1,0.2-0.3,0.5-0.5,0.6c-0.2,0.2-0.4,0.3-0.7,0.4
			c-0.3,0.1-0.6,0.2-0.9,0.2c-0.5,0-1-0.2-1.4-0.5c-0.3-0.2-0.4-0.4-0.6-0.6c-0.1-0.2-0.2-0.4-0.2-0.6c0-0.2,0.1-0.4,0.2-0.5
			c0.1-0.1,0.3-0.2,0.5-0.2c0.1,0,0.3,0,0.3,0.1c0.1,0.1,0.2,0.2,0.3,0.3c0.1,0.1,0.1,0.2,0.2,0.3c0.1,0.1,0.1,0.2,0.2,0.2
			c0.1,0.1,0.1,0.1,0.2,0.1c0.1,0,0.2,0.1,0.3,0.1c0.2,0,0.4-0.1,0.5-0.2c0.1-0.2,0.2-0.3,0.2-0.6c0-0.3-0.1-0.4-0.2-0.5
			c-0.2-0.1-0.4-0.2-0.7-0.2c-0.2,0-0.4-0.1-0.5-0.2c-0.1-0.1-0.1-0.2-0.1-0.4c0-0.2,0-0.3,0.1-0.4c0.1-0.1,0.2-0.2,0.5-0.2
			c0.4-0.1,0.7-0.3,0.7-0.6c0-0.2,0-0.3-0.1-0.4c-0.1-0.1-0.2-0.1-0.4-0.1c-0.1,0-0.3,0-0.4,0.1c-0.1,0.1-0.2,0.1-0.3,0.2
			c-0.1,0.1-0.3,0.2-0.4,0.3c-0.1,0.1-0.2,0.1-0.4,0.1c-0.2,0-0.3-0.1-0.4-0.2c-0.1-0.1-0.2-0.3-0.2-0.4c0-0.2,0.1-0.4,0.2-0.5
			c0.1-0.2,0.2-0.3,0.4-0.5c0.2-0.1,0.4-0.3,0.6-0.4c0.2-0.1,0.5-0.1,0.8-0.1c0.3,0,0.5,0,0.7,0.1c0.2,0.1,0.4,0.2,0.6,0.4
			c0.2,0.2,0.3,0.3,0.4,0.5c0.1,0.2,0.1,0.4,0.1,0.7c0,0.3-0.1,0.5-0.2,0.7C410.9,779.7,410.7,779.9,410.5,780.1z"/>
	</g>
	<g class="st63">
		<path class="st55" d="M583.1,760.5h-0.2c-0.8,0-1.1-0.3-1.1-0.8c0-0.5,0.4-0.8,1.2-0.8h0.9c0.4,0,0.6,0.1,0.8,0.3
			c0.1,0.2,0.2,0.5,0.2,0.9v5.1c0,0.8-0.3,1.2-0.9,1.2c-0.6,0-0.9-0.4-0.9-1.2V760.5z"/>
		<path class="st55" d="M587.7,759.8c0-0.2,0.1-0.4,0.1-0.5c0.1-0.1,0.1-0.2,0.2-0.3c0.1-0.1,0.2-0.1,0.3-0.1s0.3,0,0.5,0h2.1
			c0.7,0,1.1,0.3,1.1,0.8c0,0.2-0.1,0.4-0.3,0.6c-0.2,0.1-0.4,0.2-0.8,0.2h-1.8l-0.1,0.9c0.3-0.1,0.5-0.1,0.7-0.1
			c0.3,0,0.6,0.1,0.9,0.2c0.3,0.1,0.5,0.3,0.7,0.5c0.2,0.2,0.4,0.5,0.5,0.8c0.1,0.3,0.2,0.6,0.2,1c0,0.4-0.1,0.8-0.2,1.1
			c-0.1,0.3-0.3,0.6-0.6,0.9c-0.2,0.3-0.5,0.5-0.9,0.6c-0.3,0.1-0.7,0.2-1.2,0.2c-0.3,0-0.6,0-0.9-0.1c-0.3-0.1-0.5-0.2-0.8-0.3
			c-0.2-0.1-0.4-0.3-0.5-0.5c-0.1-0.2-0.2-0.4-0.2-0.6c0-0.2,0.1-0.4,0.2-0.5c0.1-0.1,0.3-0.2,0.5-0.2c0.1,0,0.2,0,0.4,0.1
			c0.1,0.1,0.2,0.1,0.4,0.2c0.1,0.1,0.3,0.2,0.4,0.2c0.1,0.1,0.3,0.1,0.5,0.1c0.1,0,0.3,0,0.4-0.1c0.1-0.1,0.2-0.1,0.3-0.2
			c0.1-0.1,0.2-0.2,0.2-0.4s0.1-0.3,0.1-0.4c0-0.3-0.1-0.6-0.3-0.8c-0.2-0.2-0.4-0.3-0.7-0.3c-0.1,0-0.2,0-0.3,0
			c-0.1,0-0.2,0.1-0.3,0.1c-0.1,0-0.2,0.1-0.3,0.1c-0.1,0-0.2,0-0.3,0c-0.4,0-0.7-0.2-0.7-0.7c0,0,0-0.1,0-0.2c0-0.1,0-0.2,0-0.4
			L587.7,759.8z"/>
		<path class="st55" d="M597.7,762.3c0.8,0.4,1.2,1.1,1.2,1.9c0,0.3-0.1,0.7-0.2,0.9c-0.1,0.3-0.3,0.6-0.6,0.8
			c-0.2,0.2-0.5,0.4-0.8,0.5c-0.3,0.1-0.7,0.2-1.1,0.2c-0.6,0-1.2-0.2-1.7-0.6c-0.3-0.2-0.5-0.5-0.7-0.7s-0.2-0.5-0.2-0.7
			c0-0.2,0.1-0.4,0.2-0.6s0.3-0.2,0.5-0.2c0.2,0,0.3,0,0.4,0.1c0.1,0.1,0.2,0.2,0.3,0.4c0.1,0.1,0.2,0.2,0.2,0.3
			c0.1,0.1,0.2,0.2,0.2,0.3c0.1,0.1,0.2,0.1,0.3,0.2c0.1,0,0.2,0.1,0.4,0.1c0.3,0,0.5-0.1,0.6-0.3c0.2-0.2,0.3-0.4,0.3-0.7
			c0-0.3-0.1-0.5-0.3-0.6c-0.2-0.1-0.5-0.2-0.8-0.3c-0.3,0-0.4-0.1-0.5-0.2c-0.1-0.1-0.2-0.3-0.2-0.5c0-0.2,0.1-0.4,0.2-0.5
			c0.1-0.1,0.3-0.2,0.5-0.2c0.5-0.1,0.8-0.4,0.8-0.8c0-0.2-0.1-0.4-0.2-0.5c-0.1-0.1-0.3-0.2-0.5-0.2c-0.2,0-0.3,0-0.4,0.1
			c-0.1,0.1-0.2,0.2-0.4,0.3c-0.2,0.1-0.3,0.3-0.4,0.4c-0.1,0.1-0.3,0.2-0.5,0.2c-0.2,0-0.3-0.1-0.5-0.2c-0.1-0.1-0.2-0.3-0.2-0.5
			c0-0.2,0.1-0.4,0.2-0.6c0.1-0.2,0.3-0.4,0.5-0.6c0.2-0.2,0.5-0.3,0.8-0.4c0.3-0.1,0.6-0.2,0.9-0.2c0.3,0,0.6,0.1,0.9,0.2
			c0.3,0.1,0.5,0.3,0.7,0.4c0.2,0.2,0.4,0.4,0.5,0.6c0.1,0.2,0.2,0.5,0.2,0.8c0,0.3-0.1,0.6-0.2,0.9
			C598.2,761.8,598,762.1,597.7,762.3z"/>
	</g>
	<path class="st64" d="M479.9,777.1c0,1.5-1.2,2.8-2.8,2.8c-1.5,0-2.8-1.2-2.8-2.8c0-1.5,1.2-2.8,2.8-2.8
		C478.6,774.4,479.9,775.6,479.9,777.1z"/>
	<g>
		<polygon class="st65" points="695.1,822.1 682.1,822.1 673.3,713.8 687.2,713.8 		"/>
		<polygon class="st66" points="700.7,822.1 691.2,822.1 686.9,713.8 700.7,713.8 		"/>
		<rect x="330.2" y="713.8" class="st67" width="13.9" height="108.3"/>
		<polygon class="st65" points="348.9,822.1 338.5,822.1 343.8,713.8 357.6,713.8 		"/>
		<polygon class="st68" points="540.8,822.1 531.3,822.1 525.2,713.8 540.8,713.8 		"/>
		<polygon class="st66" points="550,822.1 540.5,822.1 540.5,713.8 556.1,713.8 		"/>
		<g>
			<g>
				<polygon class="st68" points="543.9,722.5 330.2,722.5 330.2,705.5 620.4,705.5 				"/>
			</g>
			<rect x="540.5" y="705.5" class="st66" width="160.3" height="17"/>
		</g>
	</g>
	<g>
		<g>
			<polygon class="st69" points="700.7,708.5 324.1,708.5 324.1,691.5 706.9,691.5 			"/>
		</g>
		<rect x="540.5" y="691.5" class="st8" width="166.4" height="17"/>
	</g>
	<g>
		<g>
			<polygon class="st69" points="547.1,587.5 327.6,587.5 327.6,572.3 553.2,572.3 			"/>
		</g>
		<rect x="540.5" y="572.3" class="st8" width="163.8" height="15.2"/>
	</g>
	<g>
		<rect x="527.2" y="101" class="st69" width="13.5" height="593.2"/>
	</g>
	<g>
		<rect x="540.3" y="101" class="st8" width="13.5" height="593.2"/>
	</g>
	<g>
		<rect x="693.4" y="101" class="st8" width="13.5" height="593.2"/>
	</g>
	<g>
		<rect x="324.1" y="101" class="st69" width="13.5" height="593.2"/>
	</g>
	<g>
		<g>
			<polygon class="st69" points="544.5,466.6 327.6,466.6 326.7,450.5 544.5,450.5 			"/>
		</g>
		<rect x="540.5" y="450.5" class="st8" width="163.8" height="16.1"/>
	</g>
	<g>
		<g>
			<rect x="326.7" y="329.5" class="st69" width="215.1" height="15.2"/>
		</g>
		<rect x="540.5" y="329.5" class="st8" width="163.8" height="15.2"/>
	</g>
	<g>
		<g>
			<rect x="326.7" y="208.6" class="st69" width="215.1" height="15.2"/>
		</g>
		<rect x="540.5" y="208.6" class="st8" width="163.8" height="15.2"/>
	</g>
	<rect x="353.5" y="305.5" class="st28" width="26" height="13"/>
	<rect x="410.9" y="305.5" class="st28" width="26" height="13"/>
	<rect x="374.8" y="539" class="st28" width="29" height="5.9"/>
	<rect x="374.8" y="549.5" class="st28" width="10.6" height="5.9"/>
	<rect x="365" y="549.5" class="st27" width="6.3" height="5.9"/>
	<rect x="365" y="539" class="st27" width="6.3" height="5.9"/>
	<rect x="359.7" y="117.7" class="st70" width="29.7" height="3.2"/>
	<rect x="454.3" y="194.6" class="st71" width="19.5" height="3.2"/>
	<rect x="458.7" y="201.3" class="st71" width="10.7" height="3.2"/>
	<rect x="494.9" y="194.6" class="st71" width="19.5" height="3.2"/>
	<rect x="499.3" y="201.3" class="st71" width="10.7" height="3.2"/>
	<rect x="415.1" y="113.3" class="st72" width="12" height="7.6"/>
	<rect x="415.1" y="154.2" class="st72" width="12" height="7.6"/>
	<rect x="415.1" y="195.4" class="st72" width="12" height="7.6"/>
	<rect x="649.5" y="191.9" class="st72" width="17.2" height="11.1"/>
	<rect x="359.7" y="158.6" class="st70" width="29.7" height="3.2"/>
	<rect x="359.7" y="199.8" class="st70" width="29.7" height="3.2"/>
	<rect x="484.1" y="482.4" class="st73" width="9.1" height="9.1"/>
	<rect x="488.4" y="558.9" class="st74" width="16.8" height="9.1"/>
	<g>
		<path class="st31" d="M496.1,497.9c0,1.4-1.2,2.6-2.6,2.6H482c-1.4,0-2.6-1.2-2.6-2.6v0c0-1.4,1.2-2.6,2.6-2.6h11.5
			C494.9,495.3,496.1,496.4,496.1,497.9L496.1,497.9z"/>
	</g>
	<line class="st75" x1="392" y1="691.9" x2="392" y2="601.6"/>
	<rect x="382.8" y="601.6" class="st76" width="17.9" height="15.7"/>
	<rect x="410.8" y="678.3" class="st74" width="17.9" height="9.1"/>
	<rect x="471.9" y="595.6" class="st47" width="14.3" height="78.3"/>
	<polygon class="st77" points="391.8,617.4 385.4,617.4 391,601.6 397.4,601.6 	"/>
	<polygon class="st47" points="486.2,637.3 471.9,630.4 471.9,614.2 486.2,621 	"/>
</g>
<g style="display:inline;opacity:0.6;">
	<path class="st13" d="M355,722.5c-0.2-5.7-0.6-31-0.6-31l15.9,0c0,0-1.9-63.7-2.7-89.9h-16.8v89.9h-13.2v-104h21.2l-0.5-21.8
		c15-1.5,34.7-1.2,34.7-1.2c0.6-3.6,2.5-9.6,5.7-16.9c0.4-0.8,0.8-1.7,1.2-2.6c5.2,1,8.3,0.1,11-4.5c0.9-1.6,2-2.8,1.9-5.4
		c0-0.1,0-0.3,0-0.4c0-0.3-0.1-0.7-0.3-1c-0.6-1.1-1.9-1.5-3-1l5.4-6.5h-61.4v46.1h-15.9l0-105.7h29.7c-0.4-1.5-0.8-3.2-1.3-4.9
		c-2.9-10.5-9-19.7-18.8-23v7.9v3.8h-9.6v-13h-0.4c0,0,0,0,0,0c0,0-3.5-0.3-5.7,0c0,0-0.1,0-0.1,0h-0.1v-10.1c0.1-1.4,1.4-2.2,3.6-3
		c1-0.1,1.9-0.3,2.7-0.6v-79.1h11.8c-2.9-4.8-7.6-9.4-14.4-11.9c-0.2-0.1-0.5-0.2-0.7-0.3c-3-1-6.4-1.6-10.2-1.7l0,360.6v17h6.1v5.3
		v8.8V796c0.1,0,0.2,0,0.3,0c-0.1,0.5-0.2,0.9-0.3,1.2v24.9h8.3h5.6h4.8l8.1-99.6H355z"/>
	<path class="st13" d="M382.5,811c-4,0.1-8.3-0.5-8.3-0.5s-1.1-1.1-2.6-2.6v2.3h-4.2v11.7h16.5c1,1.1,2.2,2.1,3.5,2.8
		c0.6-0.8,0.9-1.8,1.2-3l0,0c0.1-0.1,0.2-0.2,0.3-0.3c0-0.1,0.1-0.1,0.1-0.2c0.1-0.1,0.1-0.1,0.2-0.2c0-0.1,0.1-0.1,0.1-0.2
		c0-0.1,0.1-0.1,0.1-0.2c0.1-0.2,0.2-0.3,0.3-0.5c0,0,0-0.1,0-0.1c0-0.1,0.1-0.2,0.1-0.3c0,0,0-0.1,0-0.2c0-0.1,0.1-0.2,0.1-0.3
		c0,0,0-0.1,0-0.1c0.1-0.3,0.2-0.6,0.2-0.9c0.2-0.8,0.2-1.8,0.2-2c0,0,0,0,0,0c0-0.1,0-0.3,0-0.4C390.3,812.4,386.5,810.9,382.5,811
		z"/>
	<path class="st13" d="M353.4,526.3h61.4l11.3-13.6c0.4-0.4,0.4-0.8,0.2-1.1l-0.9-2.6c-0.1-0.4-0.4-0.6-1-0.6h-0.9
		c0.7-3-1.5-5.5-4.8-5.5h-44.4c0.1,0,0.2,0,0.3,0c-0.3,0-0.7,0.1-1,0.1l-0.8,0c0.3,0,0.5,0,0.7,0c-1,0.2-2,0.8-2.9,1.6
		c-0.2,0.2-0.4,0.4-0.6,0.7l-0.3-2.5l4.9-0.9l-2.4-13c-0.8-4.4-2-10.1-3.9-17.8h-15V526.3z"/>
</g>
<g style="display:inline;">
	<g>
		<path class="st78" d="M256.1,795.3c-0.7,2.3,0.5,3.4,0.6,3.9c1.9,8.9,26.2,7.2,27.3,6.3c1-0.9,2.9-25,2.6-26.1
			c-0.3-1.2-16.3-2.4-18.6-2.6c-2.3-0.2-8.1-3.6-7.1-2.8C261.3,774.3,256.9,793.1,256.1,795.3z"/>
		<g>
			<path class="st79" d="M255.8,799c0,0-0.9,5,8,4.7c8.6-0.2,13.2-10.2,13.2-10.2l13.8-0.8c0,0,1,6.3,2.1,7.8
				c3,4.1,10.7,12.1,10.7,12.1l15.9,0.3c0,0,1.2,12.8-3.6,12.9c-4.9,0.1-14.6,0.3-18.6,0.5c-4.1,0.1-25.6-4.8-25.6-4.8
				s-18.3,0.7-18.3,0.5C253.4,804.6,255.8,799,255.8,799z"/>
		</g>
		<polygon class="st79" points="253.1,825.3 280.9,825.3 281,821.1 268.7,818.4 252.8,818.5 		"/>
		<path class="st80" d="M321.3,815.4C321.3,815.4,321.3,815.4,321.3,815.4c0,0.2-0.1,1.3-0.3,2.2c-0.1,0.4-0.2,0.7-0.3,1
			c0,0,0,0.1,0,0.1c0,0.1-0.1,0.2-0.1,0.3c0,0.1,0,0.1,0,0.2c-0.1,0.1-0.1,0.2-0.2,0.3c0,0.1,0,0.1,0,0.1c-0.1,0.2-0.2,0.3-0.3,0.5
			c0,0.1-0.1,0.1-0.1,0.2c0,0.1-0.1,0.1-0.1,0.2c-0.1,0.1-0.1,0.2-0.2,0.2c0,0.1-0.1,0.1-0.1,0.2c-0.1,0.1-0.2,0.2-0.3,0.3l-0.1,0.1
			c-0.1,0.1-0.2,0.2-0.2,0.2c0,0-0.1,0.1-0.1,0.1c-0.1,0.1-0.2,0.1-0.3,0.2c0,0,0,0-0.1,0c-0.1,0.1-0.3,0.2-0.4,0.2
			c0,0-0.1,0-0.1,0.1c-0.1,0-0.2,0.1-0.3,0.1c0,0-0.1,0-0.1,0c-0.1,0-0.3,0.1-0.4,0c-2.2,0.1-5.3,0.2-8.4,0.2
			c-3.1,0.1-6.2,0.2-8.4,0.2c-0.5,0-1,0-1.4,0c-0.1,0-0.3,0-0.4,0l-0.5,0c-0.1,0-0.2,0-0.3-0.1l-0.7,0c-0.1,0-0.2,0-0.2,0
			c-0.2,0-0.3-0.1-0.5-0.1l-0.2,0c-0.2,0-0.4-0.1-0.6-0.1l-0.2,0c-0.2,0-0.4-0.1-0.7-0.1c0,0-0.1,0-0.1,0c-0.2,0-0.5-0.1-0.8-0.1
			c-4.1-0.6-9.5-1.7-13.9-2.6c-4.4-0.9-7.8-1.6-7.8-1.6s-19,0.7-19.1,0.5c0-2.4,0.1-4.6,0.2-6.6l0-0.8c0.7-11.5,2.9-15.4,2.9-15.4
			s0.9,6.6,10.6,5.3c6.8-0.9,9.3-7.5,9.9-10.1c0.2-0.7,0.3-1.1,0.3-1.1l3.3-0.1l8-0.2l3-0.1c0,0,0.1,0.9,0.4,2.1l0,0
			c0,0.2,0.1,0.3,0.1,0.5c0,0,0,0.1,0,0.1c0,0.2,0.1,0.4,0.1,0.5c0,0,0,0.1,0,0.1c0,0.2,0.1,0.4,0.1,0.5c0,0,0,0.1,0,0.1
			c0.1,0.2,0.1,0.4,0.1,0.6c0,0,0,0.1,0,0.1c0.1,0.2,0.1,0.4,0.1,0.6c0,0,0,0,0,0c0.1,1.9,1.9,3.9,1.9,3.9
			c3.4,4.3,9.8,10.6,9.8,10.6s4.7,0.7,9,0.6c4.3-0.1,8.5,1.5,8.5,5.2C321.3,815.1,321.3,815.2,321.3,815.4z"/>
		<path class="st78" d="M292.2,795.5c0,0-9.2,1.9-17.1,4.4c-7.9,2.4-11.5,13.8-11.5,13.8l-10.5-2.5c0.7-11.5,2.9-15.4,2.9-15.4
			s0.8,5,10.6,3.7c6.8-0.9,8.6-7.3,9.3-10l15.4-0.4L292.2,795.5z"/>
	</g>
	<g>
		<path class="st81" d="M287.4,793.6h-11.9c-10.4,0-22.5,0-22.5,0s-8.7-171.5-12.1-231.7c-0.2-4.2-4-8.2-2.7-7.1l2.3-16l42.2,3.3
			c0,0,1.4,13.5,2,33.7C286.7,644.1,288.4,793.6,287.4,793.6z"/>
	</g>
	<g>
		<g>
			<path class="st78" d="M204,795.3c-0.7,2.3,0.5,3.4,0.6,3.9c1.9,8.9,26.2,7.2,27.3,6.3c1-0.9,2.9-25,2.6-26.1
				c-0.3-1.2-16.3-2.4-18.6-2.6c-2.3-0.2-8.1-3.6-7.1-2.8C209.2,774.3,204.7,793.1,204,795.3z"/>
			<g>
				<path class="st79" d="M203.6,799c0,0-0.9,5,8,4.7c8.6-0.2,13.2-10.2,13.2-10.2l13.8-0.8c0,0,1,6.3,2.1,7.8
					c3,4.1,10.7,12.1,10.7,12.1l15.9,0.3c0,0,1.2,12.8-3.6,12.9c-4.9,0.1-14.6,0.3-18.6,0.5c-4.1,0.1-25.6-4.8-25.6-4.8
					s-18.3,0.7-18.3,0.5C201.3,804.6,203.6,799,203.6,799z"/>
			</g>
			<polygon class="st79" points="201,825.3 228.7,825.3 228.9,821.1 216.5,818.4 200.6,818.5 			"/>
			<path class="st82" d="M269.2,815.4C269.2,815.4,269.2,815.4,269.2,815.4c0,0.2-0.1,1.3-0.3,2.2c-0.1,0.4-0.2,0.7-0.3,1
				c0,0,0,0.1,0,0.1c0,0.1-0.1,0.2-0.1,0.3c0,0.1,0,0.1,0,0.2c-0.1,0.1-0.1,0.2-0.2,0.3c0,0.1,0,0.1,0,0.1c-0.1,0.2-0.2,0.3-0.3,0.5
				c0,0.1-0.1,0.1-0.1,0.2c0,0.1-0.1,0.1-0.1,0.2c-0.1,0.1-0.1,0.2-0.2,0.2c0,0.1-0.1,0.1-0.1,0.2c-0.1,0.1-0.2,0.2-0.3,0.3
				l-0.1,0.1c-0.1,0.1-0.2,0.2-0.2,0.2c0,0-0.1,0.1-0.1,0.1c-0.1,0.1-0.2,0.1-0.3,0.2c0,0,0,0-0.1,0c-0.1,0.1-0.3,0.2-0.4,0.2
				c0,0-0.1,0-0.1,0.1c-0.1,0-0.2,0.1-0.3,0.1c0,0-0.1,0-0.1,0c-0.1,0-0.3,0.1-0.4,0c-2.2,0.1-5.3,0.2-8.4,0.2
				c-3.1,0.1-6.2,0.2-8.4,0.2c-0.5,0-1,0-1.4,0c-0.1,0-0.3,0-0.4,0l-0.5,0c-0.1,0-0.2,0-0.3-0.1l-0.7,0c-0.1,0-0.2,0-0.2,0
				c-0.2,0-0.3-0.1-0.5-0.1l-0.2,0c-0.2,0-0.4-0.1-0.6-0.1l-0.2,0c-0.2,0-0.4-0.1-0.7-0.1c0,0-0.1,0-0.1,0c-0.2,0-0.5-0.1-0.8-0.1
				c-4.1-0.6-9.5-1.7-13.9-2.6c-4.4-0.9-7.8-1.6-7.8-1.6s-19,0.7-19.1,0.5c0-2.4,0.1-4.6,0.2-6.6l0-0.8c0.7-11.5,2.9-15.4,2.9-15.4
				s0.9,6.6,10.6,5.3c6.8-0.9,9.3-7.5,9.9-10.1c0.2-0.7,0.3-1.1,0.3-1.1l3.3-0.1l8-0.2l3-0.1c0,0,0.1,0.9,0.4,2.1l0,0
				c0,0.2,0.1,0.3,0.1,0.5c0,0,0,0.1,0,0.1c0,0.2,0.1,0.4,0.1,0.5c0,0,0,0.1,0,0.1c0,0.2,0.1,0.4,0.1,0.5c0,0,0,0.1,0,0.1
				c0.1,0.2,0.1,0.4,0.1,0.6c0,0,0,0.1,0,0.1c0.1,0.2,0.1,0.4,0.1,0.6c0,0,0,0,0,0c0.1,1.9,1.9,3.9,1.9,3.9
				c3.4,4.3,9.8,10.6,9.8,10.6s4.7,0.7,9,0.6c4.3-0.1,8.5,1.5,8.5,5.2C269.2,815.1,269.2,815.2,269.2,815.4z"/>
			<path class="st78" d="M240.1,795.5c0,0-12.9,3-20.5,5.6c-7.5,2.7-18.7,10-18.7,10c0.7-11.5,2.9-15.4,2.9-15.4s0.8,5,10.6,3.7
				c6.8-0.9,8.6-7.3,9.3-10L239,789L240.1,795.5z"/>
		</g>
		<g>
			<g>
				<g>
					<path class="st83" d="M241.1,793.6c1.3,0,7.8-250.9,7.8-250.9l-41.6-3.8l-3.2,16c-1.2-1.1-3.8,7.1-3.8,7.1l1,231.7
						C201.4,793.6,236.3,793.6,241.1,793.6z"/>
				</g>
				<g>
					<path class="st84" d="M286.3,443.9l8.5,73.3c0.3,2.9,2.5,3.9,4.8,2l19.8-15.7"/>
				</g>
				<g>
					<path class="st85" d="M304.4,475.6l-19.1,3.6l-8.4,1.6l-2.6-14.1c-2.5-13.6-6-28.7-8.2-37.4l-3.5-13.9c0,0-2.4-2.4-3.1-4.7
						c-0.7-2.4,0.2-4.7,6.8-4.7c0.1,0,0.2,0,0.3,0c5.7,0.1,10.5,1.7,14.6,4.6c0,0,0,0,0,0c0.3,0.2,0.7,0.5,1,0.7c0,0,0,0,0.1,0
						c6.3,4.8,10.4,12.5,12.7,20.8c3.8,13.8,5.6,22.8,6.8,29.3L304.4,475.6z"/>
					<polygon class="st86" points="292.4,477.9 283.1,432.7 265.1,482.8 					"/>
				</g>
				<path class="st83" d="M286.4,538.4l-80.9,37.5l-2.9,34.5c0.4,9.5,7.6,3.3,17,1.9l49.8-15.3c9.4-1.4,18.2-2.8,18.2-12.3
					L286.4,538.4z"/>
				<path class="st85" d="M282.6,556.9c0,0,0.2-0.3,0.4-0.8C283.1,556.6,282.6,556.9,282.6,556.9z"/>
				<path class="st85" d="M286.3,431.2c0,0-0.5,22.4-1,48.1c-0.7,32.4-1.5,70.1-1.7,75c0,0.5-0.4,1.3-0.6,1.9
					c-0.1-1.2-3.7-3.3-27.7-3.1c-39.1,0.3-54.7,29.7-54.7,29.7V430.5c0-13.5,12.4-24.6,25.1-24.5h39.2c0.6,0,1.1,0,1.7,0.1
					c3.3,0.3,6.4,1.4,9,3.1C282.2,413.6,286.3,421.9,286.3,431.2z"/>
				<polygon class="st86" points="223.4,439.7 219.8,438.8 218.8,438.8 197.7,481.4 203.7,493.3 209.5,506.9 236.8,496.4 
					238.1,460.1 				"/>
				<path class="st83" d="M286,557.8c0,0-2.8,1.5-7.3,3.9c-20.5,10.7-77.2,38.7-78.2,23.4c-0.1-1-0.1-2.2-0.2-3.6c0-0.6,0-1.3,0-1.9
					c-0.9-27.1,0.6-102.3,0.6-102.3l7.9,3.5l3,3.8l-10.2,1.6c0,0,0,7.7,6.7,7.7c1.1,0,16.4-1.5,17.4-1.5c5,0,6.2-18.1,6.5-32.9
					c0.1-7.1,0.1-3.9,0.1-7.3h48.3c0,49.3,0.5,39.8,5.1,39.8c0,0,0,1.2,0.1,3.3C286,503.8,286.4,526.9,286,557.8z"/>
				<path class="st81" d="M287,564.3c0,0-41.2-12-53.6-18.2c-17.9-9-17.9-40.1-19.6-49.8c0,0-1-5.8-1.9-11.5l1.3,1.6
					c0,0,0,7.7,6.7,7.7c1.1,0,4.9-1.5,5.9-1.5c5,0,6.2-18.1,6.5-32.9l7.2,51.7l46.3-7.8C286,511.8,286,531,287,564.3z"/>
				<g>
					<path class="st87" d="M211,345.9c1.4,19.2,6.1,24.4,13.7,24.4c6.2,0,11.3-8.5,11.1-10.5c-0.2-2-2.4-13.7-4.2-14.4
						C229.8,344.8,211,345.9,211,345.9z"/>
					<path class="st87" d="M228.6,366.3c-1.2-2.5-2,5.3-2,4.4c-0.3-16.4-14.3-4.2-15.5-22.3c-0.9-15.5-1.1-15.6-1.5-23.1
						c-0.8-14.9,7.8-30.8,39.8-30.5c17.8,0.1,22.3,7,26.3,16.1c7.5,16.9,1.4,38.5,1.4,38.5L228.6,366.3z"/>
					<path class="st88" d="M257.4,407.2c0,0,0.2,6.3-10,6.3c-10.3,0-16.7-6.3-16.7-6.3v-31.3l26.7-1.5L257.4,407.2z"/>
					<path class="st89" d="M257.4,400.5c-7,0.9-26.5-1.7-26.5-6.2c0-4.6-0.2-25-0.2-25l26.7,0.2L257.4,400.5z"/>
					<path class="st89" d="M280.4,359.2c0,6.1-5.4,20.3-8.7,24.6c-1.4,1.8-3.4,5.9-7.9,7.3c-4.1,1.2-6.5,2.1-6.5,4.3
						c0,2.4-5-2.3-6.8-2.3c-20.5,0-30.6-22-30.6-37.1l6.3-19.7c0-16.4,10.9-28.3,26.8-28.1c15.9,0.1,28.7,10.9,28.7,27.4
						L280.4,359.2z"/>
					<path class="st88" d="M282.2,335l-0.2,6.5l-0.1,3.7l-0.4,14c-0.6,17.2-4.5,33.2-25.4,33c-20.9-0.1-26.5-25.4-25.9-41.8l1-14.3
						c0-0.6,0-1.2,0-1.8c0.4-21.4,9.1-29.2,24.5-29.2c19.2,0,26,11.3,26.6,25.8C282.2,332.2,282.2,333.6,282.2,335z"/>
					<g>
						<path class="st89" d="M263.6,363.2c3,0,5.5-1.7,5.4-3.4c0-0.6-0.7-1.4-1.8-0.8c-0.5,0.3-2,0.5-3.5,0.5c-1.5,0-2.4-0.3-3.2-0.6
							c-1.9-0.6-2.5,0.2-2.5,0.8C257.7,361.5,260.6,363.2,263.6,363.2z"/>
					</g>
					<path class="st89" d="M230.4,348.9c0.4,6.1-2.7,11.4-7,11.8c-4.3,0.4-8.1-4.3-8.5-10.4c-0.4-6.1,1.9-10.9,6.2-11.7
						C225.3,337.8,229.9,342.8,230.4,348.9z"/>
					<path class="st90" d="M248.5,347.6c0,1.5,1.2,2.6,2.7,2.7c1.5,0,2.7-1.2,2.7-2.6c0-1.5-1.2-2.6-2.7-2.7
						C249.7,344.9,248.5,346.1,248.5,347.6z"/>
					<path class="st90" d="M271.9,348c0,1.5,1.2,2.6,2.7,2.7c1.5,0,2.7-1.2,2.7-2.6c0-1.5-1.2-2.6-2.7-2.7
						C273.1,345.3,271.9,346.5,271.9,348z"/>
					<path class="st87" d="M227.9,337.1"/>
					<path class="st87" d="M237.8,335.2"/>
					<line class="st91" x1="243.8" y1="336.7" x2="255.8" y2="336.5"/>
					<line class="st91" x1="270.6" y1="336.9" x2="280.9" y2="337.7"/>
					<path class="st87" d="M223.9,333.9c0-9.3,4.2-17.6,10.7-23.1c-3.1-3.9-4.3-9.7-3.6-10.2c1.1-0.9,15.4-11.5,32.4-1.8
						c11.6,6.7,16.9,11.2,14.9,16c0,0.1,0.1,0.1,0.1,0.2c0,0-0.1-0.1-0.1-0.1c-1.8,4.2-5.8,7-9.3,7c-14.8,0-14.5-8.7-25.6-7.9
						c-4.3,0.3-10.3,1.4-10.3,12.2c0,11.7-2.5,25.5-2.6,25.5c-3.5,0.2-3.5-2-3.5-2c0-6.2-0.9-9.7-4.9-11.5L223.9,333.9z"/>
				</g>
				<path class="st92" d="M267.7,373.4c-1.7,1.2-4.4,1.4-6.6,1.4c-2.3,0-6-0.2-7.7-1.4"/>
				<g>
					<path class="st93" d="M267.2,602.6c0,0,0-0.1,0-0.1C267.2,602.5,267.2,602.5,267.2,602.6z"/>
					<path class="st93" d="M267.2,601.2C267.2,601.2,267.2,601.2,267.2,601.2C267.2,601.2,267.2,601.2,267.2,601.2z"/>
					<path class="st93" d="M267.2,599.9C267.2,600,267.2,600,267.2,599.9C267.2,600,267.2,600,267.2,599.9z"/>
					<path class="st93" d="M267.7,606.7c0-0.1,0-0.2,0-0.3C267.7,606.6,267.7,606.6,267.7,606.7z"/>
					<path class="st93" d="M267.5,605.2c0,0,0-0.1,0-0.1C267.5,605.1,267.5,605.2,267.5,605.2z"/>
					<path class="st93" d="M267.3,604c0-0.1,0-0.1,0-0.2C267.3,603.8,267.3,603.9,267.3,604z"/>
				</g>
				<g>
					<path class="st94" d="M213.1,449.9l10.1,65.9c0.6,3.9,4.2,6.4,8.1,5.5l44.7-10.1"/>
				</g>
				<polygon class="st95" points="227.2,482.5 227.7,485.4 211,495.5 209.5,485.8 				"/>
				<path class="st85" d="M226.3,406c-29.1,0-35.5,17.3-35.2,31.9c0.3,14.3,6.2,51,6.2,51l31.8-6.4l-5.6-44L226.3,406z"/>
			</g>
			<path class="st83" d="M225.6,406c13.9,0,17.2,32.7,17,47.3l-4.8,0.3l-5.5-0.3c0.2-14.6-3.3-46.8-18.8-46c0,0,3.5-0.7,5.9-1
				C221.9,406,225.6,406,225.6,406z"/>
			<path class="st83" d="M263.8,406c0,0-3.7-0.4-6.2,0c-0.1,0-0.2,0-0.3,0v1.1c0,0,0,0.4-0.1,1c10.8,4,13.4,33.4,13.3,46.1l6-0.5
				l4.1,0.5C280.8,439.6,277.7,406,263.8,406z"/>
		</g>
		<path class="st88" d="M263.4,505.4c4.4-2.4,10-8.8,12.4-11.2c2.4-2.3,16.3-0.6,16.8,1.4c0.6,2-3.2,5-3.4,5.6
			c-0.2,0.6-1.5,2.7-2.2,3.3c-0.7,0.6-1.5-0.3-3,0.9c-1.5,1.2-8,2.2-8.6,2.7c-0.7,0.4-5.7,2.1-6.4,2.2
			C268.2,510.4,263.4,505.4,263.4,505.4z"/>
		<path class="st86" d="M281.1,410.7c-1.4-0.8-3.3-1.3-5.6-1.4c-4.8-0.3-11,0.6-16.1,1.6c-1.9,0.4-3.7,0.8-5.1,1.1
			c3.2-1.9,3-4.8,3-4.8V406h7.5c0.6,0,1.1,0,1.7,0.1C272.3,406.2,277.1,407.9,281.1,410.7z"/>
	</g>
	<path class="st96" d="M308.7,479.4c-1.2-3.3-5.5-3.7-8.6-0.8c-6.2,5.7,6.8,14.6,7.8,17.9l-13,7.2c0,0,9.8-6.6,9.7-6.4
		c-0.1,0.3,7.7-15.4,7.7-15.4L308.7,479.4z"/>
	<path class="st97" d="M360.3,486.1l-0.9-2.8c-0.1-0.4-0.4-0.6-1.1-0.6H301c-1.1,0-2.6,0.7-3.4,1.6l-44.2,53.1
		c-0.4,0.4-0.5,0.9-0.3,1.1l1,2.9l3-2.5h54.2c1.1,0,2.6-0.7,3.4-1.6l42.7-51.3l-0.2,0.7L360.3,486.1z"/>
	<polygon class="st98" points="303.6,482.6 305.3,485.7 309.9,485.7 309.2,482.6 	"/>
	<g>
		<path class="st99" d="M315.8,540.4c-0.7,0.9-2.2,1.6-3.4,1.6h-57.2c-1.1,0-1.5-0.7-0.7-1.6l44.2-53.1c0.7-0.9,2.2-1.6,3.4-1.6
			h57.2c1.1,0,1.5,0.7,0.7,1.6L315.8,540.4z"/>
	</g>
	<path class="st96" d="M355.5,483c-0.2,0.6-0.4,1.1-0.8,1.7c-1.4,2.3-5,5.2-7.3,8.3c-15.4,20.5-28.7,40.7-30.2,49.4
		c0,0-30.4-0.5-46.2,2.6c0,0,1.1-19.2,30.1-53.8c2.7-3.3,5-4.8,6-8.1c0.9-3.2-0.8-6.2-4.6-6.2l47.4,1.9
		C353.5,478.7,356.5,479.6,355.5,483z"/>
	<path class="st12" d="M357.2,482.9c-0.2,0.6-0.4,1.1-0.8,1.7c-1.4,2.3-5,5.2-7.3,8.3c-5.2,6.9-9.6,13.9-13.1,20.5
		c-2.2,4.1-4.2,8.1-5.8,11.7c-3.5,7.8-5.5,14.3-6.2,18.2c0,0-30.4-0.5-46.2,2.6c0,0-4-20.3,25-54.9c2.7-3.3,5-4.8,6-8.1
		c0.9-3.1-0.7-5.9-4-6.2l46.9,1.9C355.2,478.6,358.2,479.5,357.2,482.9z"/>
	<path class="st96" d="M336,513.4c-2.2,4.1-4.2,8.1-5.8,11.7c-0.4-0.2-0.8-0.4-1.2-0.7c-3.1-2.3,0.8-8.7,0.8-8.7s-0.7-2.1-0.8-3.9
		c-0.1-1.8,2.1-0.4,4.3,0.8C333.4,512.5,334.5,512.8,336,513.4z"/>
	<path class="st100" d="M342.9,511.4c-1.9,1-7,1.1-11.2,0"/>
	<path class="st101" d="M340.7,510.9c-2.5-0.2-7.2-0.8-8.5,0.9c-1.4,1.7-6.2,9.2-1,10.3c5.8,1.2,9.2,0.3,12.3-4.8
		c1-1.7,2.1-3.1,2.1-5.8C345.5,509.7,343.3,511.2,340.7,510.9z"/>
	<path class="st102" d="M357.2,482.9c-3.4,0.2-46.6,0.1-48.5,0c0.9-3.2-0.8-6.2-4.6-6.2h48C355.8,476.7,358.2,479.5,357.2,482.9z"/>
	<path class="st83" d="M292.7,793.6h-17.2l-7-0.4l-13.6-191.6l32.5-25.6C289.3,644.3,293.7,793.6,292.7,793.6z"/>
	<polygon class="st81" points="252.7,615 262.2,598 247.5,603.9 	"/>
	<path class="st86" d="M282.2,333c0-0.1,0-0.1,0-0.2c-0.1-15.4-6.6-27.7-26.6-27.7c-15.4,0-22,10.7-23.1,32.9
		c0.3-3.1,5.8-4.3,13-5.4c3.2,3.6,19.8,12.8,36.4,8.9l0.1,0.1l0.1-3.8l0.1-2.7C282.2,334.3,282.2,333.7,282.2,333z"/>
	<g class="st103">
		<path class="st104" d="M242.8,466c0,0,0,4.1,0,9.2c0,5.1,4.3,9.2,9.4,9.2h9.9c5.2,0,9.4-4.1,9.4-9.2c0-5.1,0-9.2,0-9.2"/>
	</g>
</g>
<g style="display:inline;">
	<path class="st105" d="M210.4,343c-0.7,0-1.4-0.3-2-0.8c-1.1-1.1-1.2-2.9-0.1-4c0.6-0.6,14.5-14.8,52.1-14.8
		c16.4,0,21.3,1.5,22.9,6.6c1.6,5-1.6,9.3-1.4,8.5c0.2-1.4,0.5-4.6-0.8-6.3c0,0-1.6-3.2-20.7-3.2c-35.2,0-47.9,12.9-48,13.1
		C211.9,342.7,211.2,343,210.4,343z"/>
</g>
<path style="display:inline;fill:#FFDC2B;" d="M283.6,325c-1.4-1-2.7-1.2-5.5-1.2c-1,0-2.2,0.1-3.7,0.1c-2,0.1-4.4,0.1-7.5,0.1
	c-13.1,0-26.6,1.9-37.4,5.2c-10.9,3.3-19.1,8.9-22,13.7c-0.9,0.6-1.8-5.5-2.3-11.8c-0.2-2.1-0.3-4.2-0.3-6.1c0-0.4,0-0.8,0-1.2
	c0-3,0.4-6,1.1-8.9c2.8-10.7,10.9-20,25.1-24.4c1.6-0.5,3.3-1,5.1-1.3c1-0.2,2-0.4,3-0.6c0.1,0,0.2,0,0.2,0c2-0.3,4.2-0.5,6.4-0.7
	c0.1,0,0.2,0,0.4,0c0.9,0,1.7-0.1,2.5-0.1c5.1-0.1,9.5,0.7,13.3,2c0.3,0.1,0.5,0.2,0.8,0.3c9.9,3.6,15.9,11,19,18
	C285.6,316.8,285.3,324.9,283.6,325z"/>
<path style="display:inline;opacity:0.6;fill:#FFFFFF;" d="M278,323.8c-0.2,0.7-0.5,1.2-0.9,1.2c-0.8-0.6-1.6-0.9-2.8-1.1
	c-2.4-0.3-6.1,0.1-13.9,0.1l-7.6-0.2c1.9-0.2,2.2-8.8-1.9-18c-2.7-6.1-7.4-12.4-14.7-16.6c1-0.2,2-0.4,3-0.6c0.1,0,0.2,0,0.2,0
	c2-0.3,4.2-0.5,6.4-0.7c3.6,0.2,6.8,0.9,9.7,1.9c0.3,0.1,0.5,0.2,0.8,0.3c9.9,3.6,15.9,11,19,18C278.3,314.8,278.8,321.2,278,323.8z
	"/>
<path style="display:inline;fill:#FFDC2B;" d="M278,308.1c-3.1-7-9.1-14.4-19-18c-0.3-0.1-0.5-0.2-0.8-0.3c-3.8-1.3-8.3-2.1-13.3-2
	c-0.8,0-1.6,0-2.5,0.1c-1.8,0.1-3.5,0.3-5.1,0.5c7.1,1.3,13.5,10.5,16.3,16.9c4.1,9.2,3.7,18.4,1.8,18.5l7.6,0.2
	c11.6,0,14.2-1,16.7,1C281.5,324.9,281.9,316.8,278,308.1z"/>
<path style="display:inline;fill:#F7C52C;" d="M206.9,344c2.4-5.4,11.6-11.4,22.6-14.7c10.8-3.3,24.2-5.2,37.4-5.2
	c11.6,0,14.2-1,16.7,1c1.8-0.1,2.1-8.3-1.8-16.9c-3.1-7-9.1-14.4-19-18c8.4,5.2,12,21.6,12.2,25.9c0.1,1.7-9.6,0.2-38,7.2
	C214.3,328.8,202.2,337.2,206.9,344z"/>
<path style="display:inline;fill:#FFE536;" d="M302.3,320.7c0,0-14.7,3.3-19.4,4.6c0,0-1.1-0.8-4.5-1.6c-2.9-0.6-7.4-1.2-14.4-1.2
	c-4,0-10.2,1-15.8,2.2c-7.4,1.5-14,3.4-14,3.4l-0.6-3.8c0,0,4.2-2.9,14.6-5.3c7-1.7,16.9-3.2,30.2-3.5c1.7,0,3.6-0.1,5.4-0.1
	c12.3,0,17.4,0.8,18.3,2C302.6,317.9,302.3,320.7,302.3,320.7z"/>
<path style="display:inline;opacity:0.5;fill:#FFFFFF;" d="M278.5,315.4v8.3c-2.9-0.6-7.4-1.2-14.4-1.2c-4,0-10.2,1-15.8,2.2v-5.8
	C255.3,317.2,265.1,315.7,278.5,315.4z"/>
<path style="display:inline;fill:#DB9314;" d="M283.9,318.2c-37.3,0-50.1,9.9-50.1,9.9s15.1-2.8,30.2-2.8s18.9,2.8,18.9,2.8
	C291.9,325.7,321.2,318.2,283.9,318.2z"/>
<rect x="242.8" y="462.2" style="display:inline;fill:#16569B;" width="28.8" height="5.7"/>
<g style="display:inline;">
	<path class="st111" d="M241.6,450.4c1,0,1.9-0.9,1.9-1.9v-5.7c0-1-0.9-1.9-1.9-1.9h-8.5c-1,0-1.9,0.9-1.9,1.9v5.7
		c0,1,0.9,1.9,1.9,1.9H241.6z"/>
</g>
<g style="display:inline;">
	<path class="st111" d="M279.9,450.4c1,0,1.9-0.9,1.9-1.9v-5.7c0-1-0.9-1.9-1.9-1.9h-8.5c-1,0-1.9,0.9-1.9,1.9v5.7
		c0,1,0.9,1.9,1.9,1.9H279.9z"/>
</g>
<g style="display:inline;">
	<path class="st83" d="M241.3,446.9c0.7,0,1.3-0.6,1.3-1.3v-0.9c0-0.7-0.6-1.3-1.3-1.3h-5c-0.7,0-1.3,0.6-1.3,1.3v0.9
		c0,0.7,0.6,1.3,1.3,1.3H241.3z"/>
</g>
<g style="display:inline;">
	<path class="st83" d="M279.4,446.9c0.7,0,1.3-0.6,1.3-1.3v-0.9c0-0.7-0.6-1.3-1.3-1.3h-5c-0.7,0-1.3,0.6-1.3,1.3v0.9
		c0,0.7,0.6,1.3,1.3,1.3H279.4z"/>
</g>
<polygon style="display:inline;opacity:0.5;fill:#75D9F1;" points="337.5,156.4 337.5,192.3 324.1,193.9 324.1,158 "/>
<polygon style="display:inline;opacity:0.5;fill:#75D9F1;" points="540.6,132.9 540.6,168.8 527.2,170.4 527.2,134.5 "/>
<polygon style="display:inline;opacity:0.5;fill:#75D9F1;" points="337.5,138.8 337.5,152 324.1,153.6 324.1,140.4 "/>
<polygon style="display:inline;opacity:0.5;fill:#75D9F1;" points="540.6,115.3 540.6,128.5 527.2,130 527.2,116.8 "/>
</svg>
